<svg width="460" height="460" viewBox="0 0 460 460" fill="none" xmlns="http://www.w3.org/2000/svg">
<g clip-path="url(#clip0_38_4)">
<path d="M242.75 391.65C241.4 391.3 238.2 388.65 232 382.75C229.1 380 225.15 376.3 223.25 374.55C221.3 372.8 216.5 368.2 212.5 364.3C204.25 356.3 193.55 346.3 189.5 342.75C188 341.45 183.95 337.65 180.5 334.3C170.9 324.95 151.55 306.55 150.1 305.35C148.95 304.4 143.7 299.35 133.3 289.25C128.55 284.65 117.1 274 113.75 271C112.1 269.55 105.7 263.5 99.5 257.55C93.3 251.6 84 242.65 78.75 237.65C60.95 220.75 40 198.85 34.85 191.9C30.85 186.5 30 182.55 30 169.6C30 161.5 30.15 159.5 31.2 154.9C32.6 148.75 34.95 141.95 36.55 139.5C36.8 139.1 37.3 138.2 37.65 137.5C39.55 133.6 43.9 128 49.2 122.6C54.7 117 55.65 116.2 59.75 114.25C62.25 113.1 65.05 111.95 66 111.75C66.95 111.55 68 111.2 68.25 111C68.75 110.6 74.6 108.85 78.25 108C79.35 107.7 81.4 107.2 82.75 106.75C84.15 106.35 86.95 105.55 89 105C94.65 103.4 99.45 101.95 102.25 101C103.65 100.5 106.45 99.6 108.5 99C110.55 98.35 113.05 97.55 114 97.2C114.95 96.8 116.85 96.25 118.25 96C119.6 95.7 120.95 95.25 121.25 95C121.5 94.8 122.9 94.35 124.25 94.05C127.8 93.3 133.8 91.65 134.85 91.1C135.35 90.85 136.75 90.5 138 90.3C139.25 90.1 141.25 89.65 142.5 89.25C148.85 87.3 151.85 86.5 152.75 86.5C153.3 86.5 154.75 86.05 155.95 85.5C157.15 84.95 158.75 84.5 159.55 84.5C160.3 84.5 162.1 84.05 163.5 83.5C164.9 82.95 166.5 82.5 167.05 82.5C168.05 82.5 173.9 81 178.25 79.65C179.65 79.2 182 78.6 183.5 78.25C185 77.9 187.95 77.1 190 76.55C192.05 75.95 195.1 75.15 196.75 74.75C198.4 74.4 201.9 73.45 204.5 72.75C207.1 72 210.5 71.1 212 70.75C213.5 70.35 216.35 69.6 218.25 69.05C220.2 68.5 222.95 68 224.4 68H227L232.65 73.05C235.7 75.85 239.45 79.25 240.95 80.55C242.45 81.9 247.5 86.65 252.2 91.15C260.5 99.05 262.4 100.85 273.4 111C276.25 113.6 280.5 117.65 282.9 119.95C287.25 124.1 300.05 136.2 304.7 140.5C309 144.45 309.75 145.15 314.8 150C322.85 157.65 335.55 169.6 338.5 172.3C342.4 175.85 348.25 181.35 351.5 184.5C356.35 189.25 379.7 211.3 381.75 213.1C382.8 214 387.65 218.6 392.5 223.25C397.3 227.95 404.3 234.75 408 238.35C411.7 241.95 416.4 246.5 418.45 248.45C420.5 250.45 423.15 252.9 424.4 253.9C425.6 254.9 427.4 256.7 428.3 257.95C429.9 260 430 260.4 430 264C430 267.5 429.9 267.9 428.65 269.1C427.85 269.85 426.6 270.6 425.85 270.75C423.3 271.4 416.8 280.4 413.9 287.3C411.45 293.05 407.5 305.5 406.55 310.25C406.3 311.35 406 312.6 405.8 313C405.6 313.5 407.05 315.7 410 319.4C412.45 322.5 414.5 325.15 414.5 325.25C414.5 325.55 416.65 328.65 418.35 330.85C419.15 331.9 420.45 333.85 421.25 335.15C422.5 337.3 422.6 337.9 422.4 340.95C422.1 344.8 420.8 347 417.4 349.25C414.25 351.35 412.15 352 402 353.95C400.5 354.25 397.45 354.85 395.25 355.25C393.05 355.7 389.85 356.25 388.1 356.5C386.35 356.75 383.75 357.3 382.35 357.7C380.9 358.1 377.5 358.9 374.75 359.5C368.75 360.85 363.4 362.2 358.95 363.55C357.15 364.05 355.25 364.5 354.7 364.5C354.2 364.5 352.4 364.95 350.75 365.5C349.1 366.05 345.85 366.95 343.5 367.5C341.15 368.1 338.6 368.8 337.75 369.1C336.95 369.4 334.95 369.9 333.3 370.3C331.7 370.65 329.8 371.15 329.05 371.45C328.35 371.75 326.65 372.2 325.25 372.45C322.65 372.95 318.5 374 314.25 375.25C310.15 376.4 304.95 377.6 302 378C300.5 378.25 298.25 378.75 297.05 379.2C295.85 379.65 294.35 380 293.65 380C293 380 290.75 380.4 288.6 380.95C286.5 381.45 282.5 382.35 279.75 383C277 383.6 274.2 384.3 273.5 384.6C272.8 384.9 270.8 385.55 269 386C261.8 387.95 255.15 390.25 254.15 391.05C253.45 391.7 244.5 392.15 242.75 391.65ZM254.75 379C256.15 378.7 258.85 378 260.75 377.5C267.8 375.65 271.2 374.85 279.5 373.05C281 372.7 283.4 372.15 284.75 371.75C288.25 370.8 293.9 369.45 296.25 369.05C297.35 368.85 299.5 368.3 301 367.85C302.5 367.4 304.9 366.8 306.25 366.5C307.65 366.2 309.75 365.7 311 365.45C312.25 365.15 314.85 364.5 316.75 364C318.7 363.5 321.4 362.8 322.75 362.5C324.15 362.2 326.95 361.55 329 361.05C334 359.85 336.85 359.15 339.25 358.6C340.35 358.35 342.4 357.85 343.75 357.5C345.15 357.15 347.95 356.5 350 356C352.05 355.5 354.75 354.85 356 354.5C357.25 354.2 359.6 353.65 361.25 353.3C364.25 352.6 368.85 351.55 374 350.25C381.9 348.3 385.05 347.55 388 346.8C389.8 346.35 392.35 345.75 393.7 345.5C397.35 344.8 399.5 344 399.5 343.3C399.5 342.9 399.1 342.1 398.6 341.45C397.6 340.2 396.55 334.4 396.15 328.15C395.65 321.15 398.05 308.75 402.95 293C404.65 287.45 406.4 282.95 408 279.95C408.25 279.5 408.8 278.25 409.2 277.25C409.95 275.5 409.95 275.4 409.1 275.75C408.65 275.95 407 276.4 405.5 276.75C404 277.1 402.2 277.6 401.5 277.85C400.8 278.15 398.45 278.85 396.25 279.4C394.05 279.95 390.45 280.85 388.25 281.4C386.05 281.95 382.25 282.9 379.75 283.5C374.65 284.7 369.4 285.95 364.25 287.25C362.35 287.75 359.5 288.3 357.95 288.55C356.4 288.75 354.5 289.2 353.7 289.55C352.9 289.85 351 290.3 349.5 290.5C348 290.7 345.3 291.25 343.5 291.65C341.7 292.05 338 292.9 335.25 293.5C332.5 294.05 328.8 294.85 327 295.25C325.2 295.65 322.5 296.2 321 296.45C319.5 296.7 317.65 297.15 316.95 297.4C316.25 297.7 314.35 298.05 312.7 298.25C311.1 298.45 309.35 298.85 308.85 299.1C308.35 299.35 306.1 299.85 303.85 300.25C301.6 300.65 298.85 301.2 297.75 301.45C296.65 301.75 293.5 302.45 290.75 303C285.85 304.05 281.85 305 274.75 306.75C272.85 307.25 270.35 307.8 269.25 308C267 308.4 262.15 309.9 261 310.55C260.6 310.8 259.7 311.25 259 311.6C255.05 313.45 250.15 318.4 248.15 322.5C247.8 323.2 247.3 324.1 247.05 324.5C246 326.3 244.5 330.1 244.5 331.05C244.5 331.6 244.15 332.85 243.7 333.9C243.3 334.9 242.7 337.45 242.45 339.5C242.2 341.55 241.8 344.4 241.55 345.75C240.2 352.7 242.05 364.8 245.55 372.3C246.05 373.45 246.5 374.7 246.5 375.1C246.5 375.5 246.95 376.25 247.5 376.75C248.05 377.25 248.5 377.9 248.5 378.15C248.5 379 250.2 380 251.25 379.8C251.8 379.65 253.4 379.3 254.75 379ZM233.2 366.65C233.05 365.3 232.7 363.45 232.45 362.5C232.2 361.55 231.85 358 231.65 354.65C231.35 348.55 231.6 346.4 233.8 334.75C234.25 332.55 234.75 329.85 234.95 328.75C235.15 327.65 235.7 326.05 236.15 325.15C236.6 324.25 237 323 237 322.35C237 321.7 237.45 320.55 238 319.85C238.55 319.15 239 318.25 239 317.85C239 317.4 239.25 316.9 239.5 316.75C239.8 316.55 240.45 315.6 240.95 314.6C241.45 313.6 242.8 311.7 243.95 310.45L246 308.1L243.1 305.35C241.55 303.85 238.35 301.05 236 299.2C233.65 297.35 229.55 293.65 226.8 291.05C224.1 288.4 221.6 286.05 221.3 285.75C220.95 285.5 218.55 283.2 215.95 280.75C213.4 278.25 208.15 273.3 204.3 269.75C192.85 259 168.95 235.7 139 205.95C129.6 196.6 67.65 134.1 63.8 130.1C61.75 127.9 60.5 127 59.65 127C58.35 127 55.75 129.3 53.75 132.2C53.2 132.95 52 134.6 51.1 135.75C50.25 136.95 49.25 138.45 49 139.1C48.7 139.75 47.7 141.5 46.75 143C45.8 144.5 45.05 146.1 45 146.5C45 146.95 44.7 147.75 44.3 148.3C43.55 149.3 41.6 155.2 40.55 159.5C38.6 167.15 38.65 177.9 40.6 181.9C42.3 185.5 50.65 194.15 96.3 239.5C124.95 267.95 134.35 277.15 150.25 292C152.45 294.05 155.85 297.35 157.8 299.25C163.35 304.65 172.7 313.35 178.25 318.25C181 320.7 184.55 323.95 186.2 325.45C187.8 327 189.85 328.95 190.7 329.75C191.55 330.6 194.65 333.4 197.5 335.95C200.4 338.55 202.85 340.8 203 341C203.15 341.15 204.05 341.9 205 342.7C206.7 344.1 219.75 356.4 228.5 364.85C230.85 367.15 232.9 369 233.1 369C233.3 369 233.35 367.95 233.2 366.65ZM411.7 338.2C411.85 337.8 411.25 336.3 410.35 334.85C407.65 330.5 403.75 325.45 403.55 326.05C403.2 327.1 404.55 333.7 405.55 335.75C406.05 336.85 406.8 338.6 407.25 339.65L408 341.55L409.7 340.25C410.65 339.55 411.55 338.6 411.7 338.2ZM265 299.25C267.9 298.8 271.4 298.1 272.75 297.75C274.15 297.4 276.5 296.95 278 296.75C279.5 296.55 281.9 296.1 283.25 295.75C285.7 295.1 290.3 294.15 298 292.75C302.9 291.85 306.5 291.1 310.5 290.15C312.3 289.75 315.1 289.2 316.75 288.95C318.35 288.7 320.85 288.15 322.25 287.8C323.6 287.4 326.1 286.8 327.75 286.5C334.65 285.1 335.9 284.85 339 284C342.1 283.15 343.45 282.85 351 281.3C354.65 280.55 360 279.25 363.75 278.25C368.3 277.05 373.2 275.9 375.55 275.5C376.85 275.25 378.95 274.7 380.2 274.3C381.5 273.85 383 273.5 383.5 273.5C384.05 273.5 385.8 273.05 387.35 272.55C388.95 272 391.2 271.45 392.3 271.3C393.45 271.15 395 270.65 395.8 270.25C396.6 269.85 397.7 269.5 398.25 269.5C399.25 269.5 403.65 268.15 408.25 266.45C409.65 265.9 411.05 265.5 411.45 265.5C411.8 265.5 412.8 265.2 413.65 264.8C414.55 264.4 416.15 263.7 417.25 263.25L419.25 262.4L409.5 252.9C400.6 244.25 389.7 233.85 378.5 223.3C376.15 221.1 369.75 215 364.25 209.75C353.7 199.65 347.6 193.85 345.45 191.9C344.75 191.3 342.4 189.15 340.2 187.15C338.05 185.2 334 181.4 331.25 178.7C323.05 170.75 308.5 157 304.55 153.5C302.55 151.7 299.85 149.25 298.55 148C297.25 146.75 292.15 141.9 287.2 137.2C282.3 132.5 276.2 126.85 273.75 124.7C271.25 122.5 268.35 119.85 267.2 118.75C265.1 116.65 250 102.25 247.9 100.35C247.25 99.75 244.8 97.55 242.5 95.5C240.2 93.45 236.15 89.7 233.55 87.2C225.85 79.9 224.8 78.95 223.5 78.45C222.3 77.95 220.75 78.3 212.25 81C210.6 81.5 208.45 82.1 207.5 82.25C206.55 82.45 204.85 82.85 203.75 83.25C202.65 83.6 200.65 84.1 199.25 84.4C196.55 84.95 194.05 85.6 189 87C187.2 87.5 184.65 88.1 183.25 88.4C181.9 88.65 178.05 89.6 174.75 90.5C171.45 91.35 167.5 92.4 166 92.75C164.5 93.15 161.9 93.85 160.25 94.25C158.6 94.7 155.9 95.35 154.25 95.7C152.6 96.1 149 97 146.25 97.75C143.5 98.5 140.45 99.25 139.5 99.5C138.55 99.7 136.65 100.2 135.25 100.65C127.2 103.15 119.3 105.65 116.25 106.55C114.35 107.1 112.1 107.8 111.25 108.1C110.45 108.4 108.5 108.9 107 109.25C105.5 109.65 103.6 110.15 102.75 110.45C99.5 111.55 96.1 112.6 93.5 113.25C86.9 114.95 83.65 115.9 82.65 116.4C82.05 116.75 81.05 117 80.4 117C79.75 117 78.35 117.45 77.25 118C76.15 118.55 75.05 119 74.7 119C74.4 119 73.55 119.45 72.8 120.05C71.6 121 71.55 121.15 72.2 122.4C73.85 125.55 109.35 161.6 166.35 218C195.25 246.6 200.1 251.3 218.4 268.3C220.15 269.9 223.9 273.45 226.75 276.25C229.6 279 234.45 283.6 237.55 286.5C240.65 289.4 243.4 292 243.7 292.25C248.6 296.95 255.65 300.8 258.5 300.25C259.2 300.15 262.1 299.7 265 299.25Z" fill="black"/>
<path d="M261.1 363.9C260.3 363.1 260.3 358.25 261.15 357.65C262.05 356.95 274.35 354 280.5 353.05C282 352.8 286.05 352 289.5 351.25C292.95 350.5 297 349.7 298.5 349.45C300 349.2 302 348.75 302.9 348.45C304.5 347.9 310 346.65 316.5 345.3C318.3 344.95 320.9 344.35 322.25 344.05C323.65 343.7 326.45 343 328.5 342.5C330.55 342.05 333.85 341.25 335.75 340.75C337.7 340.25 340.25 339.7 341.5 339.5C342.75 339.3 345.1 338.8 346.75 338.35C348.4 337.95 352 337.1 354.75 336.5C357.5 335.9 360.9 335.1 362.25 334.75C368.45 333.05 374.2 332.6 378.5 333.55L381 334.1V336.55V339H379.1C378.05 339 376.05 339.35 374.6 339.75C372.25 340.45 370.65 340.8 360.65 342.75C358.5 343.15 355.9 343.85 354.85 344.25C353.85 344.65 352.35 345 351.6 345C350.85 345 348.8 345.4 347 345.95C345.2 346.5 342.5 347.15 341 347.5C335.1 348.7 326.6 350.7 321.75 352.05C319.85 352.55 317.7 353 317.05 353C316.4 353 314.85 353.35 313.55 353.75C310.7 354.65 305.3 355.9 301 356.7C299.2 357.05 297.45 357.45 297.15 357.65C296.8 357.85 294.9 358.35 292.9 358.75C286.55 359.95 283.85 360.55 279.95 361.55C277.85 362.05 275.55 362.5 274.85 362.5C274.15 362.5 271.7 362.95 269.4 363.5C264.65 364.65 261.95 364.75 261.1 363.9Z" fill="black"/>
<path d="M264.55 343.55C263.9 342.65 263.5 341.3 263.5 340.05C263.5 337.8 263.2 337.95 270.6 336.25C272.6 335.8 275.4 335.1 276.75 334.75C280.4 333.75 285.75 332.5 289.5 331.75C292.95 331 295.05 330.5 300.85 328.95C302.85 328.45 305 328 305.6 328C306.25 328 308.2 327.6 310 327.05C311.8 326.5 314.45 325.85 315.9 325.55C322 324.3 323.95 323.85 327.1 322.95C328.9 322.4 330.9 322 331.55 322C332.5 322 337.4 321 344 319.4C345.25 319.1 347.85 318.6 349.75 318.25C353.25 317.6 354.3 317.35 366 314.4C369.45 313.55 373.8 312.75 375.65 312.6C378.6 312.45 379.3 312.55 380.8 313.6C382.3 314.65 382.5 315 382.5 317.05C382.5 320.25 381.4 321.1 375.25 322.45C372.5 323.05 368.35 323.95 366 324.5C363.65 325.1 361.35 325.5 360.85 325.5C360.4 325.5 358.35 325.95 356.35 326.45C354.4 327 350.5 327.9 347.75 328.5C345 329.1 341.65 329.9 340.25 330.3C338.9 330.7 336.5 331.2 335 331.45C332.05 331.9 326.85 333.1 322.75 334.25C321.4 334.6 319.15 335.1 317.75 335.3C316.4 335.5 314.7 335.85 314 336.1C313.35 336.35 311.1 336.9 309 337.25C306.95 337.65 304.35 338.2 303.25 338.45C302.15 338.7 299 339.4 296.25 340C293.5 340.6 289.35 341.5 287 342.05C284.65 342.6 282.15 343 281.45 343C280.75 343 278.5 343.45 276.45 344C274.4 344.55 271.15 345 269.15 345C265.75 345 265.5 344.9 264.55 343.55Z" fill="black"/>
<path d="M266 323.55C266 321.2 266.1 320.95 267.4 320.45C268.15 320.15 269.3 319.6 270 319.25C270.7 318.95 273.3 318.05 275.75 317.3C278.25 316.55 281.15 315.65 282.25 315.25C283.35 314.9 285.15 314.45 286.25 314.3C287.35 314.1 289.7 313.65 291.5 313.25C296.15 312.2 302.3 311 305.65 310.45C307.25 310.2 309.6 309.7 310.9 309.3C312.2 308.95 314.5 308.35 316 308.05C317.5 307.75 319.75 307.25 321 307C322.25 306.7 324.25 306.2 325.5 305.9C330.75 304.65 331.9 304.35 335.25 303.5C337.2 303 339.65 302.4 340.75 302.1C346 300.85 347.9 300.35 350 299.7C351.25 299.3 353.25 298.8 354.5 298.5C357.1 297.95 361.6 296.8 365.25 295.8C370.6 294.3 373.85 293.4 376 292.95C377.25 292.7 379.1 292.15 380.15 291.75C382.45 290.85 390 290.7 390.9 291.6C391.25 291.95 391.5 293.45 391.5 295C391.5 299.2 390.75 299.75 384.75 300.2C382.1 300.4 378.9 300.9 377.6 301.3C376.3 301.65 374.55 302 373.75 302C372.9 302 371 302.35 369.5 302.75C368 303.15 365.55 303.75 364.15 304C362.7 304.3 360.9 304.85 360.15 305.25C359.35 305.65 358.25 306 357.65 306C357 306 355.65 306.35 354.55 306.8C353.45 307.2 351.25 307.9 349.65 308.25C348.05 308.65 344.85 309.4 342.5 310C340.15 310.6 336.9 311.35 335.25 311.7C327.95 313.35 325.05 313.95 322.25 314.5C318.3 315.25 314.05 316.2 309.75 317.25C307.85 317.7 304.35 318.5 302 319.05C299.65 319.6 296.5 320.35 295 320.7C293.5 321.1 290.35 321.9 288 322.45C285.65 323.05 282.4 323.95 280.75 324.5C278.95 325.05 275.35 325.6 271.85 325.8L266 326.15V323.55Z" fill="black"/>
<path d="M207.75 324.2C201.7 321 199.2 319.35 191.7 313.6C187.45 310.35 176.4 300.8 173 297.5C169.7 294.25 158.3 283.65 151.25 277.25C143.2 269.95 132.7 259.7 97.2 224.25C64.05 191.2 63.6 190.7 61.7 186.75C60.05 183.35 59.75 182.15 59.6 178.65C59.45 175.2 59.6 174.05 60.55 171.65C62.2 167.6 63.3 166.55 66.85 165.95C74 164.7 77.7 166.75 90.05 179C104.95 193.8 118.05 206.55 129 217C148.1 235.15 153.15 240 168.3 254.75C176.45 262.75 183.85 269.95 184.75 270.75C185.6 271.6 188.75 274.6 191.8 277.5C194.8 280.4 198.95 284.3 201 286.25C212.6 297 220.6 304.8 221.8 306.55C223 308.3 223.2 309.1 223.4 313.4C223.7 319.8 223.1 321.8 220.4 323.9C218.45 325.4 218.05 325.5 214.3 325.5C210.9 325.5 209.85 325.3 207.75 324.2ZM213.9 316.8C214.65 316.4 215.65 315.65 216.2 315.1C217.1 314.1 217.1 314 216 312.55C215.45 311.7 213.55 309.95 211.85 308.65C209.1 306.55 195.2 293.6 185.2 283.75C183.2 281.85 179.75 278.5 177.45 276.3C175.15 274.15 164.95 264.2 154.75 254.25C144.6 244.25 135.75 235.65 135.2 235.15C134.6 234.65 127.75 228.05 119.95 220.5C112.15 212.95 103.75 204.85 101.3 202.5C94.2 195.75 83 184.4 83 183.95C83 183.3 75.95 177.75 73.65 176.6L71.55 175.5L70.1 176.75C69.3 177.45 68.5 178.4 68.35 178.95C68 180.25 69.55 183.5 71.5 185.55C79.3 193.7 118.75 233.6 124.1 238.7C126.4 240.9 131.75 246.05 136 250.2C145.3 259.25 156.6 269.9 162.75 275.35C165.25 277.55 169.15 281.2 171.5 283.5C173.85 285.75 177.35 288.95 179.35 290.5C183.6 293.9 183.95 294.25 186.4 296.5C191.3 301.05 199.3 308.15 199.9 308.35C200.25 308.5 201.6 309.65 202.9 310.85C206.55 314.35 210.15 316.85 212.4 317.45C212.5 317.5 213.15 317.2 213.9 316.8Z" fill="black"/>
<path d="M149.2 166C147.65 165.5 141.6 159.45 136.5 153.2C135 151.35 132.55 148.45 131.05 146.8C128.1 143.4 127.5 142.25 127.5 139.75C127.5 137.9 129.4 135.65 131.25 135.3C131.8 135.2 133.4 134.85 134.75 134.5C136.15 134.2 138.8 133.6 140.65 133.25C142.5 132.85 144.4 132.3 144.9 132.05C145.35 131.8 146.75 131.45 148 131.25C149.25 131.1 151.25 130.65 152.5 130.25C153.75 129.9 157.35 129 160.5 128.3C166.95 126.8 173.15 125.25 176.5 124.25C177.75 123.9 179.65 123.45 180.75 123.25C181.85 123.1 183.75 122.6 185 122.25C186.25 121.85 188.25 121.3 189.5 121C190.75 120.7 193.45 120 195.5 119.45C197.55 118.9 200.5 118.15 202 117.8C203.5 117.45 205.85 116.75 207.15 116.3C208.45 115.85 209.85 115.5 210.3 115.5C210.7 115.5 212.45 115.05 214.15 114.45C216.6 113.6 218.6 113.4 223.5 113.3C226.95 113.3 230.35 113.4 231.1 113.65C231.9 113.85 233.65 115.5 235.55 117.9C237.3 120 239.6 122.75 240.7 124C245.45 129.3 247.1 131.4 250.25 136.1C251.6 138.15 251.85 140.65 250.95 142.7C250.3 144.05 246.65 145.6 242.25 146.45C239.15 147 233.5 148.35 230.5 149.25C229.25 149.6 227.15 150.05 225.75 150.25C224.4 150.45 222.55 150.8 221.65 151.05C220.8 151.35 218.2 151.85 215.9 152.25C210.5 153.15 203.15 154.8 201.35 155.45C200.55 155.75 199.4 156 198.7 156C198.05 156 196.2 156.4 194.65 156.95C193.05 157.45 190.65 158.1 189.25 158.4C184.85 159.35 180.8 160.35 178.25 161.15C175.85 161.85 173.95 162.3 167 163.7C165.2 164.1 162.5 164.75 160.95 165.15C157.3 166.15 151.15 166.6 149.2 166ZM162.7 157.45C165.2 156.9 168.15 156.2 169.25 155.95C170.35 155.65 172.5 155.1 174 154.75C176.75 154.1 183.7 152.25 190.25 150.4C192.2 149.9 195.1 149.15 196.75 148.8C198.4 148.45 200.55 147.9 201.5 147.6C202.45 147.3 204.6 146.95 206.25 146.75C207.9 146.6 210.5 146.15 212 145.75C213.5 145.4 216.2 144.95 218 144.75C219.75 144.6 221.6 144.2 222.1 143.95C222.6 143.7 224.3 143.25 225.85 142.95C227.45 142.65 229 142.25 229.25 142.05C229.55 141.8 232.05 140.95 234.85 140.05C240.65 138.2 240.6 138.4 237.3 134.25C236.4 133.15 235 131.1 234.1 129.65C231.2 125.05 226 121 223.1 121C222.55 121 220.7 121.45 219 122C217.3 122.55 215.15 123 214.3 123C212.95 123 208.45 123.9 201.75 125.55C200.65 125.85 198.4 126.35 196.75 126.7C193.3 127.45 188.4 128.75 184.75 129.8C183.4 130.2 181.25 130.75 180 131C178.75 131.3 175.75 132.1 173.25 132.75C170.8 133.45 167.4 134.35 165.75 134.75C162.4 135.5 159.6 136.2 155.5 137.35C154 137.75 151.5 138.25 150 138.5C148.5 138.7 145.8 139.25 144 139.75C142.2 140.2 140.15 140.75 139.4 140.9L138.1 141.25L139.85 143.9C140.85 145.4 144.3 149.25 147.5 152.55C153.4 158.5 153.4 158.5 155.75 158.5C157.05 158.5 160.2 158.05 162.7 157.45Z" fill="black"/>
</g>
<defs>
<clipPath id="clip0_38_4">
<rect width="460" height="460" fill="white"/>
</clipPath>
</defs>
</svg>
